<mxfile host="Electron" modified="2023-09-27T12:39:54.060Z" agent="Mozilla/5.0 (Windows NT 10.0; Win64; x64) AppleWebKit/537.36 (KHTML, like Gecko) draw.io/21.8.2 Chrome/114.0.5735.289 Electron/25.8.1 Safari/537.36" etag="nyd2WKOY4hmm0N1BRkje" version="21.8.2" type="device">
  <diagram name="Страница — 1" id="Nrh3TIs0oUijX1fJTNYn">
    <mxGraphModel dx="1062" dy="723" grid="1" gridSize="10" guides="1" tooltips="1" connect="1" arrows="1" fold="1" page="1" pageScale="1" pageWidth="827" pageHeight="1169" math="0" shadow="0">
      <root>
        <mxCell id="0" />
        <mxCell id="1" parent="0" />
        <mxCell id="r8Nsh55Wo7BVCNhZFHVN-41" value="Комиссионное вознаграждение" style="swimlane;childLayout=stackLayout;horizontal=1;startSize=50;horizontalStack=0;rounded=1;fontSize=14;fontStyle=0;strokeWidth=2;resizeParent=0;resizeLast=1;shadow=0;dashed=0;align=center;arcSize=4;whiteSpace=wrap;html=1;" parent="1" vertex="1">
          <mxGeometry x="530" y="360" width="160" height="120" as="geometry" />
        </mxCell>
        <mxCell id="r8Nsh55Wo7BVCNhZFHVN-42" value="IDКомиссии (PK), &lt;br&gt;IDПродажи (FK), &lt;br&gt;СуммаКомиссии" style="align=left;strokeColor=none;fillColor=none;spacingLeft=4;fontSize=12;verticalAlign=top;resizable=0;rotatable=0;part=1;html=1;" parent="r8Nsh55Wo7BVCNhZFHVN-41" vertex="1">
          <mxGeometry y="50" width="160" height="70" as="geometry" />
        </mxCell>
        <mxCell id="r8Nsh55Wo7BVCNhZFHVN-43" value="Товар" style="swimlane;childLayout=stackLayout;horizontal=1;startSize=50;horizontalStack=0;rounded=1;fontSize=14;fontStyle=0;strokeWidth=2;resizeParent=0;resizeLast=1;shadow=0;dashed=0;align=center;arcSize=4;whiteSpace=wrap;html=1;" parent="1" vertex="1">
          <mxGeometry x="210" y="700" width="160" height="160" as="geometry" />
        </mxCell>
        <mxCell id="r8Nsh55Wo7BVCNhZFHVN-44" value="IDТовара (PK), &lt;br&gt;НазваниеТовара, &lt;br&gt;ЦенаЗакупки, &lt;br&gt;ЦенаПродажи" style="align=left;strokeColor=none;fillColor=none;spacingLeft=4;fontSize=12;verticalAlign=top;resizable=0;rotatable=0;part=1;html=1;" parent="r8Nsh55Wo7BVCNhZFHVN-43" vertex="1">
          <mxGeometry y="50" width="160" height="110" as="geometry" />
        </mxCell>
        <mxCell id="reTYHR-SfFVmuJAN4zLe-6" style="edgeStyle=orthogonalEdgeStyle;rounded=0;orthogonalLoop=1;jettySize=auto;html=1;exitX=0.5;exitY=0;exitDx=0;exitDy=0;entryX=0.5;entryY=1;entryDx=0;entryDy=0;endArrow=ERmany;endFill=0;startArrow=ERmany;startFill=0;" edge="1" parent="1" source="r8Nsh55Wo7BVCNhZFHVN-45" target="r8Nsh55Wo7BVCNhZFHVN-48">
          <mxGeometry relative="1" as="geometry" />
        </mxCell>
        <mxCell id="r8Nsh55Wo7BVCNhZFHVN-45" value="Продажа" style="swimlane;childLayout=stackLayout;horizontal=1;startSize=50;horizontalStack=0;rounded=1;fontSize=14;fontStyle=0;strokeWidth=2;resizeParent=0;resizeLast=1;shadow=0;dashed=0;align=center;arcSize=4;whiteSpace=wrap;html=1;" parent="1" vertex="1">
          <mxGeometry x="200" y="470" width="180" height="145" as="geometry" />
        </mxCell>
        <mxCell id="r8Nsh55Wo7BVCNhZFHVN-46" value="IDПродажи (PK), &lt;br&gt;ДатаПродажи, &lt;br&gt;IDПродавца (FK), &lt;br&gt;IDТовара (FK), &lt;br&gt;КоличествоПроданныхЕдиниц" style="align=left;strokeColor=none;fillColor=none;spacingLeft=4;fontSize=12;verticalAlign=top;resizable=0;rotatable=0;part=1;html=1;" parent="r8Nsh55Wo7BVCNhZFHVN-45" vertex="1">
          <mxGeometry y="50" width="180" height="95" as="geometry" />
        </mxCell>
        <mxCell id="r8Nsh55Wo7BVCNhZFHVN-47" value="Продавец" style="swimlane;childLayout=stackLayout;horizontal=1;startSize=50;horizontalStack=0;rounded=1;fontSize=14;fontStyle=0;strokeWidth=2;resizeParent=0;resizeLast=1;shadow=0;dashed=0;align=center;arcSize=4;whiteSpace=wrap;html=1;" parent="1" vertex="1">
          <mxGeometry x="210" y="180" width="160" height="195" as="geometry" />
        </mxCell>
        <mxCell id="r8Nsh55Wo7BVCNhZFHVN-48" value="IDПродавца (PK), &lt;br&gt;ИмяПродавца, &lt;br&gt;ПроцентКомиссионных" style="align=left;strokeColor=none;fillColor=none;spacingLeft=4;fontSize=12;verticalAlign=top;resizable=0;rotatable=0;part=1;html=1;" parent="r8Nsh55Wo7BVCNhZFHVN-47" vertex="1">
          <mxGeometry y="50" width="160" height="145" as="geometry" />
        </mxCell>
        <mxCell id="reTYHR-SfFVmuJAN4zLe-1" value="Прибыль" style="swimlane;childLayout=stackLayout;horizontal=1;startSize=50;horizontalStack=0;rounded=1;fontSize=14;fontStyle=0;strokeWidth=2;resizeParent=0;resizeLast=1;shadow=0;dashed=0;align=center;arcSize=4;whiteSpace=wrap;html=1;" vertex="1" parent="1">
          <mxGeometry x="530" y="570" width="160" height="120" as="geometry" />
        </mxCell>
        <mxCell id="reTYHR-SfFVmuJAN4zLe-2" value="IDПрибыли (PK), &lt;br&gt;IDПродажи (FK), &lt;br&gt;СуммаПрибыли" style="align=left;strokeColor=none;fillColor=none;spacingLeft=4;fontSize=12;verticalAlign=top;resizable=0;rotatable=0;part=1;html=1;" vertex="1" parent="reTYHR-SfFVmuJAN4zLe-1">
          <mxGeometry y="50" width="160" height="70" as="geometry" />
        </mxCell>
        <mxCell id="reTYHR-SfFVmuJAN4zLe-7" style="edgeStyle=orthogonalEdgeStyle;rounded=0;orthogonalLoop=1;jettySize=auto;html=1;exitX=0.5;exitY=1;exitDx=0;exitDy=0;entryX=0.5;entryY=0;entryDx=0;entryDy=0;endArrow=ERmany;endFill=0;startArrow=ERmany;startFill=0;" edge="1" parent="1" source="r8Nsh55Wo7BVCNhZFHVN-46" target="r8Nsh55Wo7BVCNhZFHVN-43">
          <mxGeometry relative="1" as="geometry" />
        </mxCell>
        <mxCell id="reTYHR-SfFVmuJAN4zLe-8" style="edgeStyle=orthogonalEdgeStyle;rounded=0;orthogonalLoop=1;jettySize=auto;html=1;exitX=0;exitY=0.25;exitDx=0;exitDy=0;entryX=1;entryY=0.5;entryDx=0;entryDy=0;endArrow=ERmandOne;endFill=0;startArrow=ERmandOne;startFill=0;" edge="1" parent="1" source="reTYHR-SfFVmuJAN4zLe-2" target="r8Nsh55Wo7BVCNhZFHVN-46">
          <mxGeometry relative="1" as="geometry" />
        </mxCell>
        <mxCell id="reTYHR-SfFVmuJAN4zLe-9" style="edgeStyle=orthogonalEdgeStyle;rounded=0;orthogonalLoop=1;jettySize=auto;html=1;exitX=0;exitY=0.5;exitDx=0;exitDy=0;entryX=1;entryY=0.25;entryDx=0;entryDy=0;endArrow=ERmandOne;endFill=0;startArrow=ERmandOne;startFill=0;" edge="1" parent="1" source="r8Nsh55Wo7BVCNhZFHVN-42" target="r8Nsh55Wo7BVCNhZFHVN-46">
          <mxGeometry relative="1" as="geometry" />
        </mxCell>
      </root>
    </mxGraphModel>
  </diagram>
</mxfile>
